PathFileType	4	(X/Y/Z)	D:\TRACE\v60_Jaco2_6-2-23\JustArmDRS_Motion3_3-platform.trc
DataRate	CameraRate	NumFrames	NumMarkers	Units	OrigDataRate	OrigDataStartFrame	OrigNumFrames
100.00	100.00	      60	5	mm	100.00	876	      7000
Frame#	Time	Left_Front			Right_Front			Left_Aft			Right_Aft			Post			
		X1	Y1	Z1	X2	Y2	Z2	X3	Y3	Z3	X4	Y4	Z4	X5	Y5	Z5	

876	8.750	-764.05365	-13.73393	-655.64886	806.31244	-14.69727	-632.96167	-695.74939	26.26544	477.61865	719.43854	27.13257	583.13495	31.81008	1272.96399	-1012.69684	
877	8.760	-763.81085	-13.82648	-655.63611	806.53510	-14.67994	-632.95276	-695.47614	26.32184	477.60938	719.82111	27.03066	583.09491	32.12983	1273.02649	-1012.74396	
878	8.770	-763.62024	-13.81076	-655.66083	806.73651	-14.58517	-632.97504	-695.21204	26.40066	477.60031	719.78503	27.11763	583.09833	32.43699	1273.05090	-1012.81567	
879	8.780	-763.34271	-13.71918	-655.58704	806.97778	-14.54130	-633.00513	-694.99048	26.48082	477.52377	719.95264	27.16263	583.02997	32.70527	1273.09717	-1012.88190	
880	8.790	-763.03162	-13.72413	-655.46820	807.15576	-14.53013	-633.00409	-694.77020	26.49406	477.53485	720.28302	27.15414	583.12567	32.95145	1273.13330	-1012.90900	
881	8.800	-762.70819	-13.72025	-655.48584	807.49451	-14.58420	-633.09308	-694.33362	26.40143	477.61472	720.54620	27.10632	583.16064	33.26176	1273.11169	-1012.89508	
882	8.810	-762.48883	-13.70264	-655.59656	807.74377	-14.61558	-633.09119	-694.03387	26.29596	477.68869	720.87848	27.07822	583.16266	33.55934	1273.09875	-1012.87115	
883	8.820	-761.74774	-13.74640	-655.08722	807.96118	-14.60870	-633.10852	-693.92297	26.38026	477.61295	721.08319	27.07501	583.15356	33.89100	1273.07324	-1012.71582	
884	8.830	-761.52075	-13.77499	-655.23169	808.18774	-14.52117	-633.14124	-693.75275	26.38270	477.58182	721.30048	27.11001	583.14142	34.09118	1273.19812	-1012.66052	
885	8.840	-761.77478	-13.66717	-655.85193	808.42010	-14.44623	-633.03485	-693.49310	26.43802	477.55798	721.52142	27.14167	583.12836	34.19479	1273.21582	-1012.62720	
886	8.850	-761.56421	-13.66152	-655.90051	808.62793	-14.47090	-633.04767	-693.23346	26.32282	477.56204	721.51025	27.13816	583.06384	34.33303	1273.20520	-1012.57520	
887	8.860	-761.30652	-13.62588	-655.92664	808.87543	-14.46536	-633.03961	-692.99139	26.38712	477.56866	721.57117	27.09678	583.31201	34.64714	1273.20618	-1012.60553	
888	8.870	-761.05444	-13.60595	-655.88800	809.19397	-14.53861	-633.02338	-692.70398	26.31579	477.58670	721.86096	27.01361	583.43469	34.88474	1273.20007	-1012.59143	
889	8.880	-760.73743	-13.55762	-655.84863	809.53046	-14.46545	-632.93805	-692.52484	26.29920	477.57986	722.33081	26.91989	583.13013	35.05338	1273.24524	-1012.57214	
890	8.890	-760.46063	-13.56363	-655.73553	809.75647	-14.45763	-632.95276	-692.32397	26.31306	477.55502	722.62598	26.88896	583.18317	35.25795	1273.26697	-1012.50330	
891	8.900	-760.21442	-13.58897	-655.68024	809.93317	-14.43002	-632.93854	-691.97058	26.32055	477.59869	722.92395	26.75248	583.20923	35.65030	1273.20313	-1012.48755	
892	8.910	-760.01410	-13.60384	-655.65948	810.13245	-14.44589	-632.94135	-691.67328	26.26107	477.63867	723.18976	26.71912	583.20935	35.89323	1273.21362	-1012.49036	
893	8.920	-759.83234	-13.64813	-655.73364	810.65350	-14.56052	-633.26849	-691.45081	26.14805	477.65811	723.41864	26.75362	583.26050	36.16584	1273.19495	-1012.50787	
894	8.930	-759.61987	-13.70298	-655.79785	810.88348	-14.59653	-633.30640	-691.19891	26.17947	477.74457	723.60889	26.78740	583.34735	36.37924	1273.18262	-1012.51202	
895	8.940	-759.41260	-13.62303	-655.72809	811.09552	-14.49372	-633.28241	-691.00763	26.20558	477.77206	723.78894	26.81711	583.32019	36.55194	1273.17444	-1012.53070	
896	8.950	-759.18292	-13.61053	-655.75012	811.35986	-14.54676	-633.27771	-690.85095	26.23483	477.76199	724.02637	26.96280	583.33936	36.78429	1273.23596	-1012.45142	
897	8.960	-758.97614	-13.55185	-655.71417	811.56842	-14.58338	-633.29028	-690.62537	26.23428	477.73505	724.35583	26.70434	583.32367	37.00782	1273.20117	-1012.34418	
898	8.970	-758.81195	-13.51181	-655.68549	811.51483	-14.49601	-632.99866	-690.46057	26.25533	477.77451	724.58899	26.69408	583.30365	37.24911	1273.18542	-1012.35522	
899	8.980	-758.60077	-13.54799	-655.70660	811.74139	-14.48236	-632.96381	-690.30255	26.25928	477.78589	724.53864	26.75105	582.64526	37.32660	1273.17944	-1012.28387	
900	8.990	-758.56494	-13.44666	-655.74750	811.93964	-14.49723	-632.96576	-690.15344	26.24997	477.76511	724.91650	27.11017	583.15173	37.50927	1273.18408	-1012.24976	
901	9.000	-758.08478	-13.39103	-655.35309	812.03210	-14.37674	-632.91187	-689.90112	26.20151	477.76199	724.93903	27.07599	583.14105	37.66278	1273.24512	-1012.22443	
902	9.010	-757.92786	-13.36502	-655.27899	812.16296	-14.33959	-632.87897	-689.76086	26.20149	477.76620	724.99493	26.93523	582.76276	37.75546	1273.30347	-1012.20349	
903	9.020	-758.23938	-13.26929	-655.74078	812.34045	-14.37248	-632.84857	-689.61017	26.16760	477.77466	725.16754	26.90812	582.78101	37.94642	1273.31360	-1012.24146	
904	9.030	-758.07239	-13.24526	-655.66425	812.40802	-14.34192	-632.86005	-689.48706	26.07612	477.73056	725.38391	26.93845	583.09314	38.10376	1273.34790	-1012.24597	
905	9.040	-757.87793	-13.13740	-655.63409	812.57068	-14.24771	-632.83533	-689.39355	26.07494	477.75513	725.58258	26.92543	583.37714	38.22227	1273.38330	-1012.26648	
906	9.050	-757.71552	-13.05524	-655.58844	812.74286	-14.17223	-632.79407	-689.28754	26.01405	477.73682	725.72321	26.81305	583.42920	38.29979	1273.48547	-1012.27838	
907	9.060	-757.59259	-12.95776	-655.55072	812.92450	-14.08188	-632.81317	-689.16461	25.98612	477.77322	725.83636	26.70282	583.45874	38.34179	1273.65808	-1012.17609	
908	9.070	-757.54340	-13.11797	-655.63153	813.03644	-14.04570	-632.83783	-689.02869	25.93486	477.78445	725.95221	26.63413	583.49158	38.42852	1273.78467	-1012.03241	
909	9.080	-757.45831	-12.87867	-655.46948	813.06873	-13.97883	-632.83069	-688.94397	25.88070	477.80545	726.10632	26.52971	583.41266	38.49847	1273.88684	-1011.74359	
910	9.090	-757.37854	-12.90916	-655.41632	813.15173	-13.90006	-632.85364	-688.84302	25.80526	477.91330	726.09741	26.34701	583.47308	38.68435	1274.01001	-1011.35730	
911	9.100	-757.22504	-12.89228	-655.38629	813.30151	-13.84702	-632.80151	-688.74500	25.77850	477.88931	726.21484	26.30326	583.49579	38.89711	1274.31580	-1010.93658	
912	9.110	-757.12634	-12.80943	-655.36017	813.38367	-13.74066	-632.81299	-688.64032	25.70923	477.91653	726.22998	26.21620	583.53217	38.79793	1274.32141	-1010.28052	
913	9.120	-756.92688	-12.80721	-655.41699	813.46191	-13.66079	-632.73682	-688.58148	25.66399	477.87817	726.38654	26.21361	583.57294	39.15516	1274.64441	-1010.32593	
914	9.130	-756.84235	-12.67589	-655.38153	813.52362	-13.52892	-632.70123	-688.56305	25.61749	477.86841	726.40649	26.16999	583.63458	39.19426	1274.69421	-1010.17096	
915	9.140	-756.77283	-12.50523	-655.37646	813.54504	-13.33168	-632.68799	-688.55743	25.56475	477.90958	726.38861	26.12957	583.68854	39.08813	1274.76062	-1010.04529	
916	9.150	-756.63318	-12.38285	-655.36285	813.62433	-13.21966	-632.67712	-688.51648	25.51177	477.96375	726.36444	26.06157	583.67291	39.09153	1274.92480	-1009.76581	
917	9.160	-756.61163	-12.21394	-655.20819	813.62610	-13.03976	-632.67236	-688.53546	25.42728	478.01904	726.37878	25.96344	583.68329	39.15705	1275.06641	-1009.53510	
918	9.170	-756.56635	-12.12122	-655.22162	813.82709	-13.01868	-633.02802	-688.42902	25.28549	478.07248	726.33752	25.78901	583.71277	39.12837	1275.27893	-1009.40411	
919	9.180	-756.47656	-11.99433	-655.19220	813.78326	-12.82455	-632.98590	-688.42255	25.16193	478.17419	726.31628	25.64075	583.77057	39.11130	1275.57239	-1009.21991	
920	9.190	-756.44940	-11.81766	-655.24323	813.60492	-12.54352	-632.67139	-688.34631	25.02639	478.25458	726.36243	25.51051	583.76227	39.25729	1275.97461	-1008.91040	
921	9.200	-756.46265	-11.66895	-655.24432	813.58624	-12.43885	-632.67181	-688.37622	24.95744	478.31900	726.25000	25.25375	583.94421	39.32951	1276.33167	-1008.51831	
922	9.210	-756.57269	-11.86808	-655.75580	813.64819	-12.29254	-632.62927	-688.40033	24.83620	478.41122	726.30310	25.16351	583.98138	39.29160	1276.69788	-1008.17340	
923	9.220	-756.45593	-11.69927	-655.72003	813.66449	-12.07821	-632.56018	-688.35693	24.65715	478.46936	726.42426	25.05814	584.01733	39.36354	1276.83130	-1007.73334	
924	9.230	-756.41937	-11.26256	-655.20270	813.69067	-11.91683	-632.49677	-688.34381	24.59386	478.53036	726.49908	24.87450	584.07208	39.40645	1277.00232	-1007.29272	
925	9.240	-756.45538	-11.08842	-655.21802	813.67462	-11.78545	-632.46552	-688.27802	24.43272	478.52649	726.55322	24.72580	584.16010	39.24874	1277.15393	-1006.86542	
926	9.250	-756.40948	-10.97135	-655.15265	813.72418	-11.59810	-632.41425	-688.26654	24.28860	478.55273	726.56897	24.62462	584.21021	39.26664	1277.53076	-1006.34027	
927	9.260	-756.43994	-10.78197	-655.14624	813.68213	-11.40390	-632.31689	-688.23340	24.12828	478.56253	726.78290	24.42760	584.18994	39.01596	1277.63342	-1005.80322	
928	9.270	-756.39490	-10.69440	-655.08081	813.67438	-11.14879	-632.26038	-688.18738	23.93416	478.61938	726.79767	24.28375	584.26062	39.36506	1278.24341	-1005.52618	
929	9.280	-756.38452	-10.54750	-655.00464	813.55487	-10.86310	-632.13898	-688.19452	23.74938	478.65112	726.79980	24.17387	584.26880	39.25157	1278.64722	-1004.93976	
930	9.290	-756.47430	-10.32559	-654.92731	813.46173	-10.60858	-632.12531	-688.23083	23.61621	478.70230	726.77960	24.01626	584.27606	39.18721	1279.01050	-1004.41125	
931	9.300	-756.45679	-10.15651	-654.82526	813.42352	-10.38916	-632.15131	-688.30237	23.43724	478.76309	726.58026	23.81903	584.37469	39.20457	1279.46143	-1003.60541	
932	9.310	-756.48151	-10.01934	-654.78088	813.34717	-10.16810	-632.13617	-688.48688	23.20261	478.86096	726.37891	23.59233	584.43494	39.05591	1279.73926	-1003.27765	
933	9.320	-756.71613	-9.74118	-654.78436	813.17261	-9.84879	-632.08051	-688.67322	23.03272	478.84879	726.17603	23.30203	584.48480	38.69732	1280.21155	-1002.75330	
934	9.330	-756.93121	-9.38617	-654.77795	813.04480	-9.48227	-632.01489	-688.87531	22.93575	478.85046	725.81177	22.87332	584.53101	38.51866	1280.55505	-1002.24866	
935	9.340	-757.60468	-7.84570	-654.63879	812.89539	-9.23287	-631.89929	-689.00885	22.74703	478.96704	725.72430	22.75849	584.62543	38.06630	1280.99487	-1001.53271	
